# xmcd
#
# Track frame offsets: 
#        150
#        25559
#        54402
#        78488
#        105213
#        132271
#        152693
#        178943
#        208790
#
# Disc length: 3682 seconds
#
# Revision: 1
# Processed by: cddbd v1.5.2PL0 Copyright (c) Steve Scherf et al.
# Submitted via: ExactAudioCopyFreeDBPlugin 1.0
#
DISCID=6a0e6009
DTITLE=Andromedan Funk Machine - Doubledecker
DYEAR=2006
DGENRE=Funk
TTITLE0=Beach Ball Baby
TTITLE1=Funk Injection
TTITLE2=Fantasy
TTITLE3=Speed
TTITLE4=Doubledecker
TTITLE5=Movin
TTITLE6=Snapshots
TTITLE7=Higher
TTITLE8=Beyond the Horizon
EXTD=
EXTT0=
EXTT1=
EXTT2=
EXTT3=
EXTT4=
EXTT5=
EXTT6=
EXTT7=
EXTT8=
PLAYORDER=
